<svg xmlns="http://www.w3.org/2000/svg" xmlns:xlink="http://www.w3.org/1999/xlink" width="500" zoomAndPan="magnify" viewBox="0 0 375 374.999991" height="500" preserveAspectRatio="xMidYMid meet" version="1.0"><defs><clipPath id="2aff75177c"><path d="M 44.980469 123.042969 L 330 123.042969 L 330 357.269531 L 44.980469 357.269531 Z M 44.980469 123.042969 " clip-rule="nonzero"/></clipPath><clipPath id="080660a47a"><path d="M 45.5 24 L 330 24 L 330 126.382812 L 45.5 126.382812 Z M 45.5 24 " clip-rule="nonzero"/></clipPath></defs><g clip-path="url(#2aff75177c)"><path fill="#5271ff" d="M 172.648438 158.46875 C 172.648438 169.628906 181.695312 178.675781 192.855469 178.675781 C 204.015625 178.675781 213.0625 169.628906 213.0625 158.46875 C 213.0625 147.308594 204.015625 138.257812 192.855469 138.257812 C 181.695312 138.257812 172.648438 147.308594 172.648438 158.46875 Z M 188.996094 24.777344 C 190.015625 63.976562 171.515625 82.042969 209.90625 107.945312 C 194.574219 92.554688 199.933594 75.933594 203.957031 53.949219 C 202.1875 77.753906 196.71875 93.195312 216.609375 110.355469 C 216.449219 100.4375 217.363281 91.964844 218.058594 84.457031 C 276.828125 98.347656 320.527344 151.164062 320.527344 214.167969 C 320.527344 260.121094 297.308594 300.601562 261.972656 324.570312 C 273.609375 312.722656 283.367188 298.671875 290.554688 282.585938 C 307.765625 243.820312 306.261719 201.457031 289.910156 165.640625 C 285.136719 155.128906 273.179688 151.214844 280.957031 167.515625 C 297.042969 201.457031 298.863281 241.941406 282.347656 278.996094 C 269.746094 307.410156 248.355469 329.238281 222.777344 342.695312 C 211.460938 345.804688 199.558594 347.464844 187.226562 347.464844 C 174.949219 347.464844 162.988281 345.804688 151.675781 342.695312 C 126.152344 329.238281 104.757812 307.410156 92.105469 278.996094 C 75.640625 241.941406 77.414062 201.457031 93.550781 167.515625 C 101.273438 151.214844 89.316406 155.128906 84.542969 165.640625 C 68.1875 201.457031 66.6875 243.820312 83.953125 282.585938 C 91.085938 298.671875 100.84375 312.777344 112.480469 324.570312 C 77.144531 300.601562 53.925781 260.121094 53.925781 214.167969 C 53.925781 165.371094 80.144531 122.742188 119.238281 99.472656 C 133.980469 112.664062 153.445312 119.042969 189.90625 113.734375 C 151.675781 111.859375 138.96875 83.8125 118.164062 50.359375 C 144.0625 83.441406 155.269531 110.089844 201.492188 108.910156 C 153.445312 57.539062 155.484375 17.863281 64.007812 30.085938 C 86.957031 54 98.269531 76.898438 112.75 92.984375 C 72.101562 118.027344 44.972656 162.957031 44.972656 214.167969 C 44.972656 283.925781 95.214844 341.996094 161.488281 354.117188 C 167.492188 355.402344 173.605469 356.261719 179.773438 356.742188 C 179.289062 356.796875 178.808594 356.851562 178.328125 356.90625 C 181.328125 357.066406 184.277344 357.121094 187.226562 357.066406 C 190.175781 357.121094 193.175781 357.066406 196.128906 356.90625 C 195.644531 356.851562 195.164062 356.796875 194.679688 356.742188 C 200.898438 356.261719 207.066406 355.351562 213.125 354.0625 C 279.292969 341.890625 329.480469 283.875 329.480469 214.167969 C 329.480469 146.496094 282.191406 89.875 218.863281 75.449219 C 219.988281 57.539062 216.878906 44.085938 188.996094 24.777344 Z M 123.578125 230.253906 C 123.792969 218.992188 143.6875 203.285156 152.480469 198.832031 C 168.082031 191.054688 185.617188 194.058594 202.027344 188.589844 C 216.933594 183.601562 228.035156 174.382812 238.972656 165.15625 C 245.296875 159.796875 261.492188 138.398438 262.296875 128.75 L 263.421875 128.75 L 264.117188 133.789062 L 264.011719 137.167969 C 264.011719 170.46875 214.894531 213.148438 214.894531 228 L 214.894531 231.378906 C 214.894531 236.097656 220.738281 239.851562 225.621094 239.851562 L 227.332031 239.851562 C 240.097656 239.851562 269.050781 221.621094 269.050781 240.386719 C 269.050781 254.488281 250.285156 291.96875 243.691406 299.640625 L 246.90625 274.867188 L 246.476562 268.59375 C 246.476562 259.796875 238.21875 254.488281 229.585938 254.488281 C 198.164062 254.488281 164.761719 295.667969 121.273438 295.667969 L 113.390625 295.667969 L 105.402344 294.652344 L 105.507812 293.953125 C 116.824219 293.742188 146.207031 276.792969 153.285156 270.738281 C 163.6875 261.785156 180.523438 245.804688 180.523438 227.414062 C 180.523438 212.34375 166.367188 208.484375 151.890625 211.753906 C 145.671875 213.148438 140.578125 216.042969 135.75 219.3125 C 130.65625 222.695312 127.226562 227.785156 123.578125 230.253906 " fill-opacity="1" fill-rule="evenodd"/></g><g clip-path="url(#080660a47a)"><path fill="#04ac5b" d="M 173.167969 158.46875 C 173.167969 169.628906 182.214844 178.675781 193.375 178.675781 C 204.535156 178.675781 213.585938 169.628906 213.585938 158.46875 C 213.585938 147.308594 204.535156 138.257812 193.375 138.257812 C 182.214844 138.257812 173.167969 147.308594 173.167969 158.46875 Z M 189.519531 24.777344 C 190.535156 63.976562 172.039062 82.042969 210.429688 107.945312 C 195.09375 92.554688 200.457031 75.933594 204.476562 53.949219 C 202.707031 77.753906 197.238281 93.195312 217.128906 110.359375 C 216.972656 100.4375 217.882812 91.964844 218.578125 84.457031 C 277.347656 98.347656 321.046875 151.164062 321.046875 214.167969 C 321.046875 260.121094 297.828125 300.601562 262.496094 324.570312 C 274.128906 312.722656 283.886719 298.671875 291.074219 282.585938 C 308.289062 243.820312 306.785156 201.457031 290.433594 165.640625 C 285.65625 155.128906 273.699219 151.214844 281.476562 167.515625 C 297.5625 201.457031 299.386719 241.941406 282.871094 278.996094 C 270.269531 307.410156 248.875 329.238281 223.300781 342.695312 C 211.984375 345.804688 200.078125 347.464844 187.746094 347.464844 C 175.46875 347.464844 163.511719 345.804688 152.195312 342.695312 C 126.671875 329.238281 105.277344 307.410156 92.625 278.996094 C 76.164062 241.941406 77.933594 201.457031 94.074219 167.515625 C 101.792969 151.214844 89.835938 155.128906 85.0625 165.640625 C 68.710938 201.457031 67.207031 243.820312 84.472656 282.585938 C 91.605469 298.671875 101.367188 312.777344 113 324.570312 C 77.664062 300.601562 54.445312 260.121094 54.445312 214.167969 C 54.445312 165.371094 80.667969 122.742188 119.757812 99.472656 C 134.503906 112.664062 153.96875 119.042969 190.425781 113.734375 C 152.195312 111.859375 139.488281 83.8125 118.683594 50.359375 C 144.582031 83.441406 155.789062 110.089844 202.011719 108.910156 C 153.96875 57.539062 156.003906 17.863281 64.527344 30.085938 C 87.476562 54 98.789062 76.898438 113.269531 92.984375 C 72.625 118.027344 45.492188 162.957031 45.492188 214.167969 C 45.492188 283.925781 95.734375 341.996094 162.007812 354.117188 C 168.015625 355.402344 174.128906 356.261719 180.292969 356.742188 C 179.8125 356.796875 179.328125 356.851562 178.847656 356.90625 C 181.847656 357.066406 184.796875 357.121094 187.746094 357.066406 C 190.695312 357.121094 193.699219 357.066406 196.648438 356.90625 C 196.164062 356.851562 195.683594 356.796875 195.203125 356.742188 C 201.417969 356.261719 207.589844 355.351562 213.648438 354.0625 C 279.8125 341.890625 330 283.875 330 214.167969 C 330 146.496094 282.710938 89.875 219.382812 75.449219 C 220.511719 57.539062 217.402344 44.085938 189.519531 24.777344 Z M 124.101562 230.253906 C 124.316406 218.992188 144.207031 203.285156 153 198.832031 C 168.605469 191.054688 186.136719 194.058594 202.546875 188.589844 C 217.453125 183.601562 228.554688 174.382812 239.492188 165.15625 C 245.816406 159.796875 262.011719 138.398438 262.816406 128.75 L 263.945312 128.75 L 264.640625 133.789062 L 264.53125 137.167969 C 264.53125 170.46875 215.414062 213.148438 215.414062 228 L 215.414062 231.378906 C 215.414062 236.097656 221.257812 239.851562 226.140625 239.851562 L 227.855469 239.851562 C 240.617188 239.851562 269.570312 221.621094 269.570312 240.386719 C 269.570312 254.488281 250.804688 291.96875 244.210938 299.640625 L 247.429688 274.867188 L 247 268.59375 C 247 259.796875 238.742188 254.488281 230.105469 254.488281 C 198.6875 254.488281 165.28125 295.667969 121.792969 295.667969 L 113.910156 295.667969 L 105.921875 294.652344 L 106.03125 293.953125 C 117.34375 293.742188 146.726562 276.792969 153.804688 270.738281 C 164.207031 261.785156 181.042969 245.804688 181.042969 227.414062 C 181.042969 212.34375 166.886719 208.484375 152.410156 211.753906 C 146.191406 213.148438 141.097656 216.042969 136.273438 219.3125 C 131.175781 222.695312 127.746094 227.785156 124.101562 230.253906 " fill-opacity="1" fill-rule="evenodd"/></g></svg>